<svg width="61" height="50" viewBox="0 0 61 50" fill="none" xmlns="http://www.w3.org/2000/svg">
<path d="M21.4239 22.6107H21.4239C20.6389 22.6107 19.8931 22.2693 19.38 21.6755C19.38 21.6755 19.38 21.6755 19.38 21.6755L1.09246 0.5H14.7267C15.5118 0.5 16.2576 0.841407 16.7706 1.43526L27.8586 14.2744V22.6111L21.4239 22.6107Z" fill="white" stroke="black"/>
<path d="M19.3807 27.8702L19.3808 27.8702C19.8937 27.2754 20.6402 26.9336 21.4256 26.9336H27.8591V35.2706L16.7707 48.1361L17.1183 48.4357L16.7707 48.1361C16.2577 48.7313 15.5109 49.0734 14.7251 49.0734H1.09206L19.3807 27.8702Z" fill="white" stroke="black"/>
<path d="M45.3135 0.5H58.9478L40.6602 21.6755C40.6602 21.6755 40.6602 21.6755 40.6602 21.6755C40.1472 22.2693 39.401 22.6107 38.6164 22.6107H32.1816V14.2744L43.2697 1.43526C43.7827 0.841434 44.5289 0.5 45.3135 0.5Z" fill="black" stroke="black"/>
<path d="M40.6604 27.8702L40.6604 27.8702L58.9491 49.0734H45.3156C44.5299 49.0734 43.783 48.7313 43.27 48.1361L42.9033 48.4522L43.27 48.1361L32.1816 35.2706V26.934L38.6155 26.9336C38.6155 26.9336 38.6155 26.9336 38.6156 26.9336C39.401 26.9336 40.1475 27.2754 40.6604 27.8702Z" fill="black" stroke="black"/>
</svg>
