<svg width="476" height="63" viewBox="0 0 476 63" fill="none" xmlns="http://www.w3.org/2000/svg">
<g clip-path="url(#clip0_137_2438)">
<path d="M436.743 36.0375H436.743C435.958 36.0375 435.212 35.6961 434.699 35.1023C434.699 35.1023 434.699 35.1023 434.699 35.1022L416.411 13.9268H430.046C430.831 13.9268 431.576 14.2682 432.089 14.862L443.177 27.7011V36.0379L436.743 36.0375Z" fill="black" stroke="#F0F0F0"/>
<path d="M434.7 41.297L434.7 41.297C435.213 40.7021 435.959 40.3604 436.744 40.3604H443.178V48.6974L432.09 61.5629L432.437 61.8625L432.09 61.5629C431.577 62.1581 430.83 62.5002 430.044 62.5002H416.411L434.7 41.297Z" fill="black" stroke="#F0F0F0"/>
<path d="M460.632 13.9268H474.267L455.979 35.1022C455.979 35.1023 455.979 35.1023 455.979 35.1023C455.466 35.6961 454.72 36.0375 453.935 36.0375H447.5V27.7011L458.588 14.862C459.102 14.2682 459.848 13.9268 460.632 13.9268Z" fill="white" stroke="#F0F0F0"/>
<path d="M455.979 41.297L455.979 41.297L474.268 62.5002H460.634C459.849 62.5002 459.102 62.158 458.589 61.5629L458.222 61.8789L458.589 61.5628L447.5 48.6974V40.3607L453.934 40.3604C453.934 40.3604 453.934 40.3604 453.934 40.3604C454.72 40.3604 455.466 40.7021 455.979 41.297Z" fill="white" stroke="#F0F0F0"/>
<path d="M37.6019 47.6713L37.6021 47.6711L37.6754 47.6045L44.5864 54.5858L44.5188 54.658L44.5185 54.6583C41.6216 57.757 38.7416 59.9178 35.5505 61.3075C32.3596 62.6971 28.8287 63.3285 24.6125 63.3285C10.4046 63.3285 -0.296387 52.6009 -0.296387 38.3507V38.2124C-0.296387 23.8892 10.5775 13.0967 25.0269 13.0967C33.026 13.0967 38.9087 15.4075 44.1695 20.5879C44.1696 20.588 44.1696 20.588 44.1697 20.588L44.2391 20.6565L37.3349 28.6172L37.257 28.5465L37.2568 28.5463C33.1511 24.8212 29.3468 23.1147 24.9585 23.1147C16.9948 23.1147 11.0347 29.5904 11.0347 38.0744V38.2124C11.0347 46.7706 16.9909 53.3104 24.9585 53.3104C30.3603 53.3104 33.7204 51.2008 37.6019 47.6713Z" fill="white" stroke="#F0F0F0"/>
<path d="M81.3353 33.0664H81.8353V32.5664V13.9268H92.682V62.5008H81.8353V43.5848V43.0848H81.3353H62.9197H62.4197V43.5848V62.5008H51.573V13.9268H62.4197V32.5664V33.0664H62.9197H81.3353Z" fill="white" stroke="#F0F0F0"/>
<path d="M146.904 62.5005H135.867L133.109 55.1671L132.988 54.8431H132.641H113.82H113.474L113.352 55.167L110.594 62.5005H99.8169L111.979 30.8193H122.51L116.777 46.0603L116.523 46.7363H117.245H129.215H129.938L129.683 46.0603L123.951 30.8193H134.742L146.904 62.5005Z" fill="white" stroke="#F0F0F0"/>
<path d="M113.638 26.4957L123.36 1.17102L133.082 26.4957H113.638Z" fill="black" stroke="#F0F0F0"/>
<path d="M193.548 20.8824L193.912 21.5226L194.373 20.9479C198.583 15.6948 203.728 13.1592 210.115 13.1592C215.472 13.1592 219.695 14.8965 222.583 18.0404C225.475 21.1898 227.083 25.8104 227.083 31.676V62.5003H215.846V35.0493C215.846 31.3861 215.02 28.4677 213.37 26.4567C211.707 24.43 209.265 23.3937 206.195 23.3937C203.075 23.3937 200.505 24.5319 198.724 26.6153C196.95 28.6897 195.998 31.651 195.998 35.232V62.5003H184.761V34.9586C184.761 31.3711 183.91 28.4768 182.251 26.4706C180.581 24.4507 178.142 23.3937 175.11 23.3937C172.03 23.3937 169.462 24.5622 167.672 26.655C165.889 28.7399 164.913 31.6994 164.913 35.232V62.5003H153.676V13.9262H164.913V19.7681V21.1875L165.802 20.0815C168.615 16.5843 172.677 13.1592 179.486 13.1592C185.779 13.1592 190.714 15.9015 193.548 20.8824Z" fill="white" stroke="#F0F0F0"/>
<path d="M248.868 47.9905H248.368V48.4905V62.5008H237.521V13.9268H257.385C263.097 13.9268 267.748 15.5978 270.966 18.5128C274.178 21.4234 276.006 25.614 276.006 30.7508V30.8901C276.006 36.1045 274.081 40.3626 270.69 43.3231C267.293 46.2897 262.38 47.9905 256.349 47.9905H248.868ZM248.868 23.7376H248.368V24.2376V37.8176V38.3176H248.868H256.694C259.129 38.3176 261.209 37.6149 262.689 36.3441C264.175 35.0676 265.021 33.2467 265.021 31.0968V30.9584C265.021 28.7006 264.242 26.8696 262.74 25.6129C261.25 24.367 259.113 23.7376 256.488 23.7376H248.868Z" fill="white" stroke="#F0F0F0"/>
<path d="M294.26 55.967V62.5008H283.412V13.9268H294.26V55.967Z" fill="white" stroke="#F0F0F0"/>
<path d="M301.847 38.2124C301.847 24.1383 313.194 13.0967 327.723 13.0967C342.419 13.0967 353.461 23.8397 353.461 38.074V38.2119C353.461 52.2864 342.113 63.3285 327.585 63.3285C312.889 63.3285 301.847 52.5859 301.847 38.3507V38.2124ZM327.585 23.1147C319.362 23.1147 313.178 29.5733 313.178 38.0744V38.2124C313.178 46.7925 319.422 53.3104 327.723 53.3104C335.946 53.3104 342.13 46.8518 342.13 38.3507V38.2124C342.13 29.6326 335.886 23.1147 327.585 23.1147Z" fill="white" stroke="#F0F0F0"/>
<path d="M372.451 19.8272V21.2544L373.342 20.1392C377.102 15.4317 381.701 13.1592 387.389 13.1592C392.745 13.1592 397.039 14.9393 399.997 18.11C402.959 21.2847 404.63 25.9062 404.63 31.676V62.5003H393.393V35.0493C393.393 31.3801 392.515 28.4572 390.766 26.4458C389.008 24.4232 386.432 23.3937 383.195 23.3937C379.958 23.3937 377.257 24.5551 375.369 26.6448C373.485 28.7294 372.451 31.6926 372.451 35.232V62.5007H361.214V13.9267H372.451V19.8272Z" fill="white" stroke="#F0F0F0"/>
</g>
<defs>
<clipPath id="clip0_137_2438">
<rect width="475.359" height="63" fill="white"/>
</clipPath>
</defs>
</svg>
